<?xml version="1.0" encoding="UTF-8"?>
<svg xmlns="http://www.w3.org/2000/svg" xmlns:xlink="http://www.w3.org/1999/xlink" width="854pt" height="480pt" viewBox="0 0 854 480" version="1.1">
<defs>
<g>
<symbol overflow="visible" id="glyph0-0">
<path style="stroke:none;" d="M 0.390625 1.375 L 0.390625 -5.484375 L 4.28125 -5.484375 L 4.28125 1.375 Z M 0.828125 0.9375 L 3.84375 0.9375 L 3.84375 -5.046875 L 0.828125 -5.046875 Z "/>
</symbol>
<symbol overflow="visible" id="glyph0-1">
<path style="stroke:none;" d="M 1.71875 -3.015625 C 1.820312 -3.015625 1.898438 -2.9375 1.953125 -2.78125 C 2.046875 -2.46875 2.113281 -2.3125 2.15625 -2.3125 C 2.195312 -2.3125 2.234375 -2.335938 2.265625 -2.390625 C 2.972656 -3.441406 3.628906 -4.1875 4.234375 -4.625 C 4.492188 -4.8125 4.742188 -4.90625 4.984375 -4.90625 C 5.304688 -4.90625 5.5 -4.894531 5.5625 -4.875 C 5.59375 -4.863281 5.609375 -4.832031 5.609375 -4.78125 C 5.609375 -4.738281 5.582031 -4.679688 5.53125 -4.609375 C 3.894531 -2.742188 2.921875 -1.53125 2.609375 -0.96875 C 2.503906 -0.769531 2.257812 -0.671875 1.875 -0.671875 C 1.75 -0.671875 1.617188 -0.707031 1.484375 -0.78125 C 1.421875 -0.8125 1.316406 -1.003906 1.171875 -1.359375 C 0.992188 -1.804688 0.90625 -2.203125 0.90625 -2.546875 C 0.90625 -2.671875 0.992188 -2.769531 1.171875 -2.84375 C 1.410156 -2.957031 1.59375 -3.015625 1.71875 -3.015625 Z "/>
</symbol>
<symbol overflow="visible" id="glyph1-0">
<path style="stroke:none;" d="M 0.390625 1.375 L 0.390625 -5.484375 L 4.28125 -5.484375 L 4.28125 1.375 Z M 0.828125 0.9375 L 3.84375 0.9375 L 3.84375 -5.046875 L 0.828125 -5.046875 Z "/>
</symbol>
<symbol overflow="visible" id="glyph1-1">
<path style="stroke:none;" d=""/>
</symbol>
<symbol overflow="visible" id="glyph1-2">
<path style="stroke:none;" d="M 0.71875 -0.28125 L 0.71875 -1.5625 L 1.15625 -1.5625 C 1.164062 -1.132812 1.289062 -0.816406 1.53125 -0.609375 C 1.769531 -0.398438 2.128906 -0.296875 2.609375 -0.296875 C 3.066406 -0.296875 3.410156 -0.382812 3.640625 -0.5625 C 3.878906 -0.738281 4 -1 4 -1.34375 C 4 -1.613281 3.925781 -1.820312 3.78125 -1.96875 C 3.644531 -2.125 3.34375 -2.269531 2.875 -2.40625 L 2.125 -2.625 C 1.582031 -2.789062 1.203125 -2.992188 0.984375 -3.234375 C 0.765625 -3.484375 0.65625 -3.820312 0.65625 -4.25 C 0.65625 -4.738281 0.820312 -5.113281 1.15625 -5.375 C 1.5 -5.644531 1.984375 -5.78125 2.609375 -5.78125 C 2.867188 -5.78125 3.15625 -5.75 3.46875 -5.6875 C 3.78125 -5.632812 4.113281 -5.550781 4.46875 -5.4375 L 4.46875 -4.234375 L 4.046875 -4.234375 C 4.003906 -4.628906 3.867188 -4.914062 3.640625 -5.09375 C 3.421875 -5.28125 3.082031 -5.375 2.625 -5.375 C 2.21875 -5.375 1.910156 -5.289062 1.703125 -5.125 C 1.492188 -4.957031 1.390625 -4.71875 1.390625 -4.40625 C 1.390625 -4.132812 1.46875 -3.921875 1.625 -3.765625 C 1.78125 -3.617188 2.113281 -3.46875 2.625 -3.3125 L 3.328125 -3.109375 C 3.847656 -2.953125 4.21875 -2.753906 4.4375 -2.515625 C 4.65625 -2.273438 4.765625 -1.953125 4.765625 -1.546875 C 4.765625 -0.992188 4.585938 -0.578125 4.234375 -0.296875 C 3.878906 -0.0234375 3.351562 0.109375 2.65625 0.109375 C 2.34375 0.109375 2.023438 0.078125 1.703125 0.015625 C 1.378906 -0.046875 1.050781 -0.144531 0.71875 -0.28125 Z "/>
</symbol>
<symbol overflow="visible" id="glyph1-3">
<path style="stroke:none;" d="M 2.75 -4.03125 L 4.0625 -4.03125 L 4.0625 -0.40625 L 4.71875 -0.40625 L 4.71875 0 L 3.359375 0 L 3.359375 -0.71875 C 3.234375 -0.445312 3.066406 -0.238281 2.859375 -0.09375 C 2.648438 0.0390625 2.410156 0.109375 2.140625 0.109375 C 1.691406 0.109375 1.363281 -0.015625 1.15625 -0.265625 C 0.945312 -0.523438 0.84375 -0.925781 0.84375 -1.46875 L 0.84375 -3.625 L 0.203125 -3.625 L 0.203125 -4.03125 L 1.546875 -4.03125 L 1.546875 -1.6875 C 1.546875 -1.195312 1.601562 -0.859375 1.71875 -0.671875 C 1.84375 -0.492188 2.054688 -0.40625 2.359375 -0.40625 C 2.691406 -0.40625 2.941406 -0.519531 3.109375 -0.75 C 3.273438 -0.988281 3.359375 -1.335938 3.359375 -1.796875 L 3.359375 -3.625 L 2.75 -3.625 Z "/>
</symbol>
<symbol overflow="visible" id="glyph1-4">
<path style="stroke:none;" d="M 4 -1.21875 C 3.90625 -0.78125 3.71875 -0.445312 3.4375 -0.21875 C 3.15625 0 2.789062 0.109375 2.34375 0.109375 C 1.75 0.109375 1.273438 -0.0820312 0.921875 -0.46875 C 0.566406 -0.863281 0.390625 -1.378906 0.390625 -2.015625 C 0.390625 -2.660156 0.566406 -3.175781 0.921875 -3.5625 C 1.273438 -3.957031 1.75 -4.15625 2.34375 -4.15625 C 2.59375 -4.15625 2.84375 -4.125 3.09375 -4.0625 C 3.351562 -4 3.613281 -3.90625 3.875 -3.78125 L 3.875 -2.75 L 3.46875 -2.75 C 3.40625 -3.101562 3.285156 -3.359375 3.109375 -3.515625 C 2.929688 -3.679688 2.675781 -3.765625 2.34375 -3.765625 C 1.96875 -3.765625 1.679688 -3.617188 1.484375 -3.328125 C 1.296875 -3.035156 1.203125 -2.597656 1.203125 -2.015625 C 1.203125 -1.429688 1.296875 -0.992188 1.484375 -0.703125 C 1.679688 -0.410156 1.96875 -0.265625 2.34375 -0.265625 C 2.644531 -0.265625 2.882812 -0.34375 3.0625 -0.5 C 3.25 -0.65625 3.375 -0.894531 3.4375 -1.21875 Z "/>
</symbol>
<symbol overflow="visible" id="glyph1-5">
<path style="stroke:none;" d="M 4.21875 -1.953125 L 1.203125 -1.953125 L 1.203125 -1.921875 C 1.203125 -1.367188 1.300781 -0.953125 1.5 -0.671875 C 1.707031 -0.398438 2.015625 -0.265625 2.421875 -0.265625 C 2.722656 -0.265625 2.972656 -0.34375 3.171875 -0.5 C 3.367188 -0.664062 3.507812 -0.90625 3.59375 -1.21875 L 4.15625 -1.21875 C 4.039062 -0.78125 3.832031 -0.445312 3.53125 -0.21875 C 3.226562 0 2.832031 0.109375 2.34375 0.109375 C 1.757812 0.109375 1.285156 -0.0820312 0.921875 -0.46875 C 0.566406 -0.863281 0.390625 -1.378906 0.390625 -2.015625 C 0.390625 -2.660156 0.5625 -3.175781 0.90625 -3.5625 C 1.257812 -3.957031 1.722656 -4.15625 2.296875 -4.15625 C 2.910156 -4.15625 3.378906 -3.960938 3.703125 -3.578125 C 4.035156 -3.203125 4.207031 -2.660156 4.21875 -1.953125 Z M 3.390625 -2.34375 C 3.378906 -2.820312 3.28125 -3.175781 3.09375 -3.40625 C 2.90625 -3.644531 2.640625 -3.765625 2.296875 -3.765625 C 1.972656 -3.765625 1.71875 -3.644531 1.53125 -3.40625 C 1.351562 -3.164062 1.242188 -2.8125 1.203125 -2.34375 Z "/>
</symbol>
<symbol overflow="visible" id="glyph1-6">
<path style="stroke:none;" d="M 0.4375 -0.21875 L 0.4375 -1.171875 L 0.84375 -1.171875 C 0.851562 -0.867188 0.945312 -0.640625 1.125 -0.484375 C 1.300781 -0.335938 1.566406 -0.265625 1.921875 -0.265625 C 2.234375 -0.265625 2.46875 -0.320312 2.625 -0.4375 C 2.789062 -0.5625 2.875 -0.734375 2.875 -0.953125 C 2.875 -1.128906 2.8125 -1.269531 2.6875 -1.375 C 2.570312 -1.488281 2.320312 -1.609375 1.9375 -1.734375 L 1.4375 -1.90625 C 1.082031 -2.019531 0.828125 -2.160156 0.671875 -2.328125 C 0.515625 -2.492188 0.4375 -2.707031 0.4375 -2.96875 C 0.4375 -3.332031 0.570312 -3.617188 0.84375 -3.828125 C 1.113281 -4.046875 1.488281 -4.15625 1.96875 -4.15625 C 2.1875 -4.15625 2.410156 -4.125 2.640625 -4.0625 C 2.878906 -4.007812 3.125 -3.929688 3.375 -3.828125 L 3.375 -2.9375 L 2.96875 -2.9375 C 2.957031 -3.195312 2.863281 -3.398438 2.6875 -3.546875 C 2.519531 -3.691406 2.289062 -3.765625 2 -3.765625 C 1.707031 -3.765625 1.484375 -3.710938 1.328125 -3.609375 C 1.179688 -3.515625 1.109375 -3.363281 1.109375 -3.15625 C 1.109375 -2.976562 1.164062 -2.835938 1.28125 -2.734375 C 1.394531 -2.640625 1.617188 -2.535156 1.953125 -2.421875 L 2.515625 -2.25 C 2.898438 -2.132812 3.175781 -1.988281 3.34375 -1.8125 C 3.507812 -1.632812 3.59375 -1.40625 3.59375 -1.125 C 3.59375 -0.738281 3.445312 -0.4375 3.15625 -0.21875 C 2.863281 0 2.460938 0.109375 1.953125 0.109375 C 1.679688 0.109375 1.421875 0.078125 1.171875 0.015625 C 0.929688 -0.0351562 0.6875 -0.113281 0.4375 -0.21875 Z "/>
</symbol>
<symbol overflow="visible" id="glyph1-7">
<path style="stroke:none;" d="M 0.75 -5.296875 C 0.75 -5.410156 0.789062 -5.507812 0.875 -5.59375 C 0.96875 -5.675781 1.070312 -5.71875 1.1875 -5.71875 C 1.300781 -5.71875 1.398438 -5.675781 1.484375 -5.59375 C 1.578125 -5.507812 1.625 -5.410156 1.625 -5.296875 C 1.625 -5.171875 1.582031 -5.066406 1.5 -4.984375 C 1.414062 -4.898438 1.3125 -4.859375 1.1875 -4.859375 C 1.070312 -4.859375 0.96875 -4.898438 0.875 -4.984375 C 0.789062 -5.066406 0.75 -5.171875 0.75 -5.296875 Z M 1.65625 -0.40625 L 2.3125 -0.40625 L 2.3125 0 L 0.28125 0 L 0.28125 -0.40625 L 0.953125 -0.40625 L 0.953125 -3.625 L 0.28125 -3.625 L 0.28125 -4.03125 L 1.65625 -4.03125 Z "/>
</symbol>
<symbol overflow="visible" id="glyph1-8">
<path style="stroke:none;" d="M 0.3125 0 L 0.3125 -0.40625 L 0.953125 -0.40625 L 0.953125 -3.625 L 0.28125 -3.625 L 0.28125 -4.03125 L 1.65625 -4.03125 L 1.65625 -3.328125 C 1.78125 -3.597656 1.945312 -3.800781 2.15625 -3.9375 C 2.363281 -4.082031 2.601562 -4.15625 2.875 -4.15625 C 3.320312 -4.15625 3.648438 -4.023438 3.859375 -3.765625 C 4.066406 -3.503906 4.171875 -3.101562 4.171875 -2.5625 L 4.171875 -0.40625 L 4.796875 -0.40625 L 4.796875 0 L 2.859375 0 L 2.859375 -0.40625 L 3.46875 -0.40625 L 3.46875 -2.34375 C 3.46875 -2.84375 3.40625 -3.179688 3.28125 -3.359375 C 3.164062 -3.546875 2.953125 -3.640625 2.640625 -3.640625 C 2.316406 -3.640625 2.070312 -3.519531 1.90625 -3.28125 C 1.738281 -3.039062 1.65625 -2.695312 1.65625 -2.25 L 1.65625 -0.40625 L 2.25 -0.40625 L 2.25 0 Z "/>
</symbol>
</g>
</defs>
<g id="surface7">
<g style="fill:rgb(41.176471%,61.176471%,32.156863%);fill-opacity:1;">
  <use xlink:href="#glyph0-1" x="30" y="27.21875"/>
</g>
<g style="fill:rgb(41.176471%,61.176471%,32.156863%);fill-opacity:1;">
  <use xlink:href="#glyph1-1" x="37" y="27.21875"/>
  <use xlink:href="#glyph1-2" x="39" y="27.21875"/>
  <use xlink:href="#glyph1-3" x="44" y="27.21875"/>
  <use xlink:href="#glyph1-4" x="49" y="27.21875"/>
  <use xlink:href="#glyph1-4" x="53" y="27.21875"/>
  <use xlink:href="#glyph1-5" x="57" y="27.21875"/>
  <use xlink:href="#glyph1-6" x="62" y="27.21875"/>
  <use xlink:href="#glyph1-6" x="66" y="27.21875"/>
  <use xlink:href="#glyph1-1" x="70" y="27.21875"/>
  <use xlink:href="#glyph1-7" x="72" y="27.21875"/>
  <use xlink:href="#glyph1-8" x="74" y="27.21875"/>
  <use xlink:href="#glyph1-1" x="79" y="27.21875"/>
</g>
</g>
</svg>
